<?xml version="1.0" encoding="UTF-8"?>
<svg id="Layer_2" data-name="Layer 2" xmlns="http://www.w3.org/2000/svg" viewBox="0 0 118.87 107.12">
  <defs>
    <style>
      .cls-1 {
        fill: #cc578d;
      }

      .cls-2 {
        fill: #231f20;
      }

      .cls-3 {
        fill: #49ad9d;
      }

      .cls-4 {
        fill: #6593c9;
      }
    </style>
  </defs>
  <g id="Layer_2-2" data-name="Layer 2">
    <path class="cls-2" d="M18.87,63.02l-.17.17c-1.73-1.83-3.34-3.7-4.79-5.6,1.54,1.9,3.18,3.72,4.93,5.43h.02Z"/>
    <path class="cls-4" d="M59.54,0c-10.84,0-19.61,8.77-19.61,19.59s8.77,19.61,19.61,19.61,19.61-8.77,19.61-19.61S70.38,0,59.54,0ZM59.38,33.2c-7.28.07-13.59-5.95-13.94-14.25h27.77c.59,8.25-6.38,14.18-13.82,14.25Z"/>
    <path class="cls-4" d="M53.54,80.19c-11.97,2.51-21.22,13.16-20.96,26.94H0c.5-17.29,7.37-32.41,19.18-43.37-.17-.19-.36-.36-.5-.55.07-.07.09-.09.17-.17.4.4.78.78,1.19,1.14-.17.19-.36.36-.5.55,9.13,8.49,20.91,14.08,33.98,15.46h.02Z"/>
    <g>
      <path class="cls-3" d="M118.84,20.79v.59c0,16.27-6.64,31.06-17.31,41.78-.4.4-.83.83-1.23,1.19,0,0,0,.02-.02.02-9.27-9.11-21.44-15.13-35-16.6,12.05-2.42,21.32-13.04,21.6-26.98h31.99-.02Z"/>
      <path class="cls-1" d="M117.99,106.53v.59h-31.99c-.28-13.73-9.22-24.16-20.98-26.89-1.45-.33-2.99-.52-4.53-.59-.28-.02-.55-.07-.85-.07v-31.28h.85c1.64-.02,3.2-.24,4.74-.55,13.56,1.47,25.73,7.49,35,16.6.17.14.28.26.43.4,10.67,10.72,17.31,25.51,17.31,41.78h.02Z"/>
      <path class="cls-3" d="M59.64,48.32v31.28h-.4c-1.92,0-3.84.19-5.67.59h-.05c-10.62-1.11-20.39-5.03-28.57-11-1.87-1.4-3.68-2.87-5.38-4.46.14-.19.33-.36.5-.55h-.02c-.4-.38-.76-.76-1.16-1.14h-.02v-.02c-.09-.09-.21-.21-.31-.31-.76-.76-1.52-1.54-2.23-2.32-.78-.85-1.54-1.73-2.25-2.63-.05-.05-.07-.09-.12-.14-.36-.5-.71-.95-1.09-1.45-.43-.52-.83-1.04-1.19-1.61-.52-.76-1.02-1.52-1.52-2.3-1.83-2.82-3.41-5.76-4.84-8.87-.05-.09-.07-.19-.12-.28C2.3,35.8.81,27.81,1.07,19.49l29.9.31,1.9.02v.05c0,.31.02.64.07.92.05.95.14,1.85.28,2.75.24,1.97.69,3.82,1.28,5.57.02.09.07.17.09.26.69,2.35,1.66,4.53,2.89,6.52.24.4.52.81.78,1.21.66.92,1.38,1.8,2.13,2.63.24.28.5.57.78.81,3.39,3.44,7.68,5.88,12.45,6.99.09.05.21.07.31.09h.02c1.83.43,3.7.66,5.62.69h.05Z"/>
    </g>
  </g>
</svg>