<?xml version="1.0" encoding="UTF-8"?>
<svg id="Layer_2" data-name="Layer 2" xmlns="http://www.w3.org/2000/svg" viewBox="0 0 314.22 66.91">
  <defs>
    <style>
      .cls-1 {
        fill: #6594cb;
      }

      .cls-2 {
        fill: #cc578d;
      }

      .cls-3 {
        fill: #231f20;
      }

      .cls-4 {
        fill: #49ad9d;
      }

      .cls-5 {
        fill: #6593c9;
      }

      .cls-6 {
        fill: #4cae9e;
      }
    </style>
  </defs>
  <g id="Layer_2-2" data-name="Layer 2">
    <g>
      <path class="cls-3" d="M61.34,39.47c-.09-.09-.16-.16-.26-.25.01,0,.01-.01.01-.01.09.09.16.16.25.26Z"/>
      <path d="M71.9,65.28v-.36c0-9.91-4.05-18.93-10.55-25.46,6.72,6.6,10.78,15.61,10.63,25.82h-.09Z"/>
      <path class="cls-3" d="M11.5,38.4l-.1.1c-1.05-1.11-2.04-2.25-2.92-3.41.94,1.16,1.94,2.27,3.01,3.31h.01Z"/>
      <path class="cls-6" d="M139.63,47.87l25.85.98c-.19,7.91,3.78,11.97,9.74,18.06l-36.9-.11c-9.29-.03-17.63-6.47-21.91-13.01-5.47-8.39-6.64-17.86-2.79-27.02,4.36-10.33,14.92-17.91,26.44-18l25.52-.22v18.22l-24.23.45c-5.1.09-8.43,4.78-9.15,9.16-.62,3.83,1.67,11.26,7.44,11.47v.02Z"/>
      <path class="cls-1" d="M98.02,36.41c1.76-2.23,3.92-5.16,5.92-8.5v37.91h-20.85V28.4c1.84,2.96,3.87,5.71,5.81,8.08l2.4,2.95c1.16,1.42,3.22,1.4,4.35-.03l2.37-2.98h0Z"/>
      <path class="cls-2" d="M103.96,15.59c-.14.56-.3,1.11-.48,1.69-.17.56-.38,1.14-.59,1.72-.25.64-.51,1.27-.79,1.92-.25.52-.48,1.04-.74,1.56-.32.59-.64,1.21-1,1.84-.22.4-.46.82-.72,1.24-.2.32-.4.66-.62.98-.25.4-.48.79-.74,1.17-.4.59-.82,1.2-1.24,1.78-1.69,2.4-5.23,2.5-7.07.25-.43-.58-.85-1.16-1.26-1.73-.1-.14-.2-.27-.27-.42-.42-.62-.84-1.26-1.21-1.88-.52-.84-1-1.66-1.43-2.5-.27-.51-.53-1.01-.78-1.52-.26-.53-.51-1.05-.72-1.57-.12-.27-.25-.53-.33-.79-.06-.16-.12-.32-.17-.48-.1-.27-.2-.56-.3-.84-.14-.38-.26-.75-.36-1.14-1.68-5.71-.95-11,3.97-14.72,3.87-2.95,8.9-2.66,12.63-.1,4.65,3.18,5.56,8.08,4.25,13.57h-.01Z"/>
      <path d="M89.98,29.7s-.1-.1-.14-.16c-.38-.52-.75-1.04-1.11-1.57.4.58.82,1.16,1.26,1.73Z"/>
      <path class="cls-5" d="M36.28,0c-6.6,0-11.95,5.35-11.95,11.94s5.35,11.95,11.95,11.95,11.95-5.35,11.95-11.95S42.89,0,36.28,0ZM36.18,20.23c-4.44.04-8.28-3.63-8.5-8.68h16.92c.36,5.03-3.89,8.64-8.42,8.68Z"/>
      <path class="cls-5" d="M32.63,48.86c-7.3,1.53-12.93,8.02-12.77,16.41H0c.3-10.53,4.49-19.75,11.69-26.43-.1-.12-.22-.22-.3-.33.04-.04.06-.06.1-.1.25.25.48.48.72.69-.1.12-.22.22-.3.33,5.56,5.17,12.74,8.58,20.71,9.42h.01Z"/>
      <g>
        <path class="cls-4" d="M72.42,12.67v.36c0,9.91-4.05,18.93-10.55,25.46-.25.25-.51.51-.75.72,0,0,0,.01-.01.01-5.65-5.55-13.06-9.22-21.33-10.11,7.34-1.47,12.99-7.95,13.16-16.44h19.49-.01Z"/>
        <path class="cls-2" d="M71.9,64.92v.36h-19.49c-.17-8.37-5.62-14.72-12.79-16.39-.88-.2-1.82-.32-2.76-.36-.17-.01-.33-.04-.52-.04v-19.06h.52c1-.01,1.95-.14,2.89-.33,8.26.9,15.68,4.57,21.33,10.11.1.09.17.16.26.25,6.5,6.53,10.55,15.55,10.55,25.46h.01Z"/>
        <path class="cls-4" d="M36.34,29.45v19.06h-.25c-1.17,0-2.34.12-3.45.36h-.03c-6.47-.68-12.43-3.06-17.41-6.7-1.14-.85-2.24-1.75-3.28-2.72.09-.12.2-.22.3-.33h-.01c-.25-.23-.46-.46-.71-.69h-.01c-.06-.07-.13-.14-.19-.2-.46-.46-.92-.94-1.36-1.42-.48-.52-.94-1.05-1.37-1.6-.03-.03-.04-.06-.07-.09-.22-.3-.43-.58-.66-.88-.26-.32-.51-.64-.72-.98-.32-.46-.62-.92-.92-1.4-1.11-1.72-2.08-3.51-2.95-5.4-.03-.06-.04-.12-.07-.17C1.4,21.82.49,16.95.65,11.88l18.22.19h1.16v.04c0,.19.01.39.04.56.03.58.09,1.13.17,1.68.14,1.2.42,2.33.78,3.4.01.06.04.1.06.16.42,1.43,1.01,2.76,1.76,3.97.14.25.32.49.48.74.4.56.84,1.1,1.3,1.6.14.17.3.35.48.49,2.07,2.1,4.68,3.58,7.59,4.26.06.03.13.04.19.06h.01c1.11.26,2.25.4,3.42.42h.03Z"/>
      </g>
      <path class="cls-5" d="M203.58,29.11c-3.04.87-5.09,3.14-5.82,5.54-.92,3.05.16,5.88,2.36,8.16,1.98,1.25,4,2.03,6.42,2.4l.02,21.44c-8.65-.04-16.75-2.99-23.09-8.53-13.37-11.69-13.27-31.32.32-42.87,12.24-10.41,30.64-11,43.75-1.34,7,5.16,11.23,12.71,11.95,21.4v31.01s-23.87.02-23.87.02l-.03-30.5c-1.14-5.45-6.51-8.3-12-6.72Z"/>
      <path class="cls-2" d="M272.19,36.05v30.61s-23.91,0-23.91,0l.12-31.34c.03-7.93,4.42-14.53,10.08-19.78,12.64-10.56,31.27-11,44.34-.92,7.15,5.51,11.36,13.67,11.39,22.59h-23.82c-.29-4.58-3.71-7.86-8.29-8.14-4.62-.47-8.79,2.14-9.91,6.98Z"/>
    </g>
  </g>
</svg>